<svg xmlns="http://www.w3.org/2000/svg" viewBox="0 0 44.64 44.64"><defs><style>.cls-1{fill:#fff;}</style></defs><g id="Layer_2" data-name="Layer 2"><g id="icons"><path class="cls-1" d="M22.32,0A22.32,22.32,0,1,0,44.64,22.32,22.34,22.34,0,0,0,22.32,0Zm0,43.14A20.82,20.82,0,1,1,43.14,22.32,20.84,20.84,0,0,1,22.32,43.14Z"/><circle class="cls-1" cx="22.32" cy="33.95" r="2.5"/><path class="cls-1" d="M22.32,7.42A9.34,9.34,0,0,0,13,16.24a2.5,2.5,0,0,0,5,0,4.44,4.44,0,0,1,4.32-3.82c3.42,0,4.33,2.28,4.33,3.5S26,17.7,24.23,19.1c-1.94,1.56-4.61,3.68-4.61,7.83a2.5,2.5,0,0,0,5,0c0-1.66.94-2.49,2.73-3.92s4.3-3.43,4.3-7.09C31.65,11.79,28.38,7.42,22.32,7.42Z"/></g></g></svg>