<svg xmlns="http://www.w3.org/2000/svg" viewBox="0 0 44.64 44.64"><defs><style>.cls-1{fill:#fff;}</style></defs><g id="Layer_2" data-name="Layer 2"><g id="icons"><path class="cls-1" d="M22.32,0A22.32,22.32,0,1,0,44.64,22.32,22.34,22.34,0,0,0,22.32,0ZM1.5,22.32A20.84,20.84,0,0,1,22.32,1.5c.28,0,.55,0,.83,0L17.54,6.47A1.5,1.5,0,0,0,17,7.68a1.54,1.54,0,0,0,.64,1.15l12.15,8.43L6.65,20.48a1.52,1.52,0,0,0-1.2,1A1.49,1.49,0,0,0,5.74,23L23.52,43.08c-.4,0-.79.06-1.2.06A20.84,20.84,0,0,1,1.5,22.32ZM27.07,42.58,9.83,23.07,34,19.7A1.5,1.5,0,0,0,34.68,17L21,7.46l6.13-5.39a20.8,20.8,0,0,1,0,40.51Z"/></g></g></svg>