<svg xmlns="http://www.w3.org/2000/svg" viewBox="0 0 44.64 44.64"><defs><style>.cls-1{fill:#fff;}</style></defs><g id="Layer_2" data-name="Layer 2"><g id="icons"><path class="cls-1" d="M22.32,0A22.32,22.32,0,1,0,44.64,22.32,22.34,22.34,0,0,0,22.32,0Zm0,43.14A20.82,20.82,0,1,1,43.14,22.32,20.84,20.84,0,0,1,22.32,43.14Z"/><path class="cls-1" d="M22.32,7.64c-2.65,0-10.84,11.14-10.84,18.43A11.16,11.16,0,0,0,21.2,37.15V32l-5.39-5.39a.85.85,0,1,1,1.2-1.2l4.19,4.19v-15a.85.85,0,1,1,1.7,0V22.9l2.24-2.25a.85.85,0,0,1,1.2,0,.86.86,0,0,1,0,1.21L22.9,25.3V37.18A11.13,11.13,0,0,0,33.17,26.07C33.17,19.15,24.92,7.64,22.32,7.64Z"/></g></g></svg>